<?xml version="1.0" encoding="UTF-8"?> <svg xmlns="http://www.w3.org/2000/svg" id="Layer_1" data-name="Layer 1" width="5.33in" height="1.07in" viewBox="0 0 383.44 76.7"><title>EIA-Logo</title><path d="M38.67,52.54A2.52,2.52,0,0,0,36.19,50H26.05c-4.82,0-7.95-2-7.95-8.39V34.74H32a2.46,2.46,0,0,0,2.48-2.48A2.52,2.52,0,0,0,32,29.7H18.1V24.3c0-6.35,2.91-8.54,7.73-8.54h8.91a2.48,2.48,0,0,0,0-5H24.88c-7,0-14.59,2.84-14.59,13.06V42.18C10.29,52.4,17.58,55,24.59,55h11.6a2.45,2.45,0,0,0,2.48-2.48M67.79,52V36.71c0-6.57-4.59-12.34-12.91-12.34s-13,5.77-13,12.34V52a3.62,3.62,0,0,0,7.23,0V38.9c0-4.6-.15-10.44,5.77-10.44s5.69,5.84,5.69,10.44V52a3.65,3.65,0,0,0,3.65,3.58A3.58,3.58,0,0,0,67.79,52M97.42,36c0,5-2,10.58-10.43,12.26a1.66,1.66,0,0,1-2.19-1.39c-.08-1.17,1.24-1.68,2-2,2.84-1.68,3.43-4.82,3.43-7.45,0-6.85-2.26-9.19-6.06-9.19-3.5,0-6.13,2.7-6.13,9.63s4.74,10.14,8.17,11.75c6.5,3,10.66,5,10.66,11,0,7.88-8.1,12.55-16.93,12.55a17.72,17.72,0,0,1-4.53-.51,2.22,2.22,0,0,1-1.6-2.19,1.89,1.89,0,0,1,2-1.75c1.17,0,2.48.51,4.6.51,4.3,0,9.12-2.62,9.12-8.46s-5.33-7.81-8.39-9.34c-5.47-2.85-10.51-6.28-10.51-13.87,0-8.46,7-13.14,13.57-13.14,8.61,0,13.21,5.48,13.21,11.61m3.26-15.37a2.75,2.75,0,0,1-.8,2c-2,1.75-4,3.5-5.91,4.89a1.75,1.75,0,0,1-1.17.51,1.73,1.73,0,0,1-1.75-1.75,2.21,2.21,0,0,1,.36-1.17,71.48,71.48,0,0,1,4-6.49,2.57,2.57,0,0,1,2.27-1,3,3,0,0,1,3,3m17.83,33.17c0-1-.51-1.38-1.68-1.68-4.3-1.09-5.18-4-5.18-10.36V10.58a3.61,3.61,0,1,0-7.22,0V43.79c0,7.66,3,11.82,10.22,11.82a10.6,10.6,0,0,0,2.11-.15,1.81,1.81,0,0,0,1.75-1.68m11-41.16a4,4,0,1,0-3.94,4,4,4,0,0,0,3.94-4M129.17,52V28a3.66,3.66,0,0,0-3.65-3.65A3.6,3.6,0,0,0,121.94,28V52a3.59,3.59,0,0,0,3.58,3.58A3.65,3.65,0,0,0,129.17,52M156,46.78C156,42,153.32,40.06,149,38c-3.21-1.53-8.18-3-8.18-5.91,0-2,1.68-3.8,5.4-3.8a16.15,16.15,0,0,1,6,1.54,2.09,2.09,0,0,0,2.77-1.1c.44-.95-.07-2.33-1.68-3a22.7,22.7,0,0,0-7.88-1.39c-6.57,0-11.09,3.58-11.09,8.4,0,5.69,4.74,7.88,6.71,9,3.87,2,8.39,3.29,8.39,5.84,0,3.14-3.06,4.16-5.47,4.16a14.62,14.62,0,0,1-6.79-1.46,2.06,2.06,0,0,0-2.84.73,2.12,2.12,0,0,0,.8,2.92c2.85,1.46,6.28,1.68,9.2,1.68,6.27,0,11.75-3.28,11.75-8.83M186.24,52V36.78c0-6.71-4.53-12.41-11.75-12.41a10.76,10.76,0,0,0-6.28,2c-.43.37-.66.22-.66-.29V10.58a3.61,3.61,0,1,0-7.22,0V52a3.61,3.61,0,0,0,7.22,0V37.58c0-4.89,1.25-9,5.84-9,5.7,0,5.62,5.84,5.62,10.44V52a3.65,3.65,0,0,0,3.65,3.58A3.59,3.59,0,0,0,186.24,52" transform="translate(-10.29 -6.93)" fill="#58595b"></path><path d="M273.83,50.86c-1.54-10.65-4-20.94-9-30.58-1.53-3.06-5-9.85-8.39-9.85-3.87,0-7.3,6.87-8.84,10-5,9.93-8.1,21.9-9.56,32.4a2.51,2.51,0,0,0,5,.73c.36-3,.8-5.91,1.38-8.82.3-1.25.59-1.9,2.34-2.34a32.45,32.45,0,0,1,7.88-.88,33.45,33.45,0,0,1,7.88.81c1.68.44,2.05,1.09,2.27,2.33.5,2.48.94,5,1.31,7.44a3.93,3.93,0,1,0,7.74-1.24M263.24,38a33.84,33.84,0,0,0-8.61-1A30.63,30.63,0,0,0,246,38a88.71,88.71,0,0,1,7-17.8c.36-.74.87-1.17,1.31-1.17s.95.51,1.24,1.09A77,77,0,0,1,263.24,38m36.13-9.13c.51-.94.22-2.4-1.54-3.13a20.62,20.62,0,0,0-8-1.32C284,24.37,275.5,28.9,275.5,40c0,10.36,5.69,15.62,13.65,15.62,3.21,0,6.86-.37,9.41-1.83a2.16,2.16,0,0,0,.81-2.77,1.85,1.85,0,0,0-1.83-1,2.4,2.4,0,0,0-.94.22,14.82,14.82,0,0,1-5.33,1.17c-3.58,0-8.32-2.7-8.32-11.39s4.74-11.38,8.24-11.38a13.51,13.51,0,0,1,5.11,1,2.23,2.23,0,0,0,3.07-.81m22.26,25c0-1-.44-1.45-1.68-1.68A8.06,8.06,0,0,1,314,47.94c-1-2-.81-6-.81-7.88V29.77a.34.34,0,0,1,.37-.36h5a2.16,2.16,0,0,0,0-4.31h-5a.3.3,0,0,1-.29-.29V19.63a3.54,3.54,0,1,0-7.08,0v5.18a.31.31,0,0,1-.29.29h-2.63a2.16,2.16,0,0,0,0,4.31h2.55a.32.32,0,0,1,.29.36c0,1.1.08-1.31-.07,12.78-.07,2.91.51,6.35,2,8.39,2.27,3.21,6.79,4.67,9.71,4.67a10.18,10.18,0,0,0,2-.15,1.82,1.82,0,0,0,1.76-1.68m11.89-41.16a4,4,0,1,0-3.94,4,4,4,0,0,0,3.94-4M333.16,52V28a3.66,3.66,0,0,0-3.65-3.65A3.6,3.6,0,0,0,325.93,28V52a3.59,3.59,0,0,0,3.58,3.58A3.65,3.65,0,0,0,333.16,52m31.45-12c0-10.36-5.62-15.62-13.57-15.62S337.46,29.63,337.46,40,343.08,55.61,351,55.61,364.61,50.35,364.61,40m-7.3,0c0,8.76-2.41,11.75-6.27,11.75s-6.28-3-6.28-11.75,2.41-11.68,6.28-11.68,6.27,3,6.27,11.68m36.42,12V36.71c0-6.57-4.6-12.34-12.92-12.34s-13,5.77-13,12.34V52A3.61,3.61,0,0,0,375,52V38.9c0-4.6-.14-10.44,5.77-10.44s5.69,5.84,5.69,10.44V52a3.65,3.65,0,0,0,3.65,3.58A3.59,3.59,0,0,0,393.73,52" transform="translate(-10.29 -6.93)" fill="#58595b"></path><path d="M219.62,53.71A18,18,0,1,0,196.49,43a18,18,0,0,0,23.13,10.69" transform="translate(-10.29 -6.93)" fill="#c1d82f"></path><path d="M209.1,46.24l1.77-1-6-11-1.77,1Zm5-2.8,1.72-.94-4.2-7.68,11.29,3.79.91-.5-6-11-1.71.94,4.21,7.71L209,32l-.91.5Z" transform="translate(-10.29 -6.93)" fill="#231f20"></path><path d="M209.1,46.24l1.77-1-6-11-1.77,1Zm5-2.8,1.72-.94-4.2-7.68,11.29,3.79.91-.5-6-11-1.71.94,4.21,7.71L209,32l-.91.5Z" transform="translate(-10.29 -6.93)" fill="#fff"></path><path d="M209.1,46.24l1.77-1-6-11-1.77,1Zm5-2.8,1.72-.94-4.2-7.68,11.29,3.79.91-.5-6-11-1.71.94,4.21,7.71L209,32l-.91.5Z" transform="translate(-10.29 -6.93)" fill="none" stroke="#fff" stroke-width="0.15"></path><rect width="383.44" height="66.19" fill="none"></rect><path d="M114.45,78.27a2.69,2.69,0,0,1-2.44,1.5,2.57,2.57,0,0,1-1.29-.31,3.83,3.83,0,0,1-1-.77l0,.85H108.3V64.93l1.46-.85v5.28a4.22,4.22,0,0,1,1-.83,2.63,2.63,0,0,1,1.38-.36,2.57,2.57,0,0,1,2.34,1.44,9,9,0,0,1,.81,4.27A8.94,8.94,0,0,1,114.45,78.27Zm-1.1-7.7a1.61,1.61,0,0,0-1.51-1.08,2.16,2.16,0,0,0-1.13.31,3.74,3.74,0,0,0-.95.79v6.72a3.59,3.59,0,0,0,1,.83,2.35,2.35,0,0,0,1.21.32,1.35,1.35,0,0,0,.89-.32,2.41,2.41,0,0,0,.6-.91,6.36,6.36,0,0,0,.33-1.45,15.24,15.24,0,0,0,.11-1.88A8.21,8.21,0,0,0,113.35,70.57Z" transform="translate(-10.29 -6.93)" fill="#231f20"></path><path d="M125,79.54V78.6a3.21,3.21,0,0,1-.95.82,2.84,2.84,0,0,1-1.44.35,2.59,2.59,0,0,1-2.16-.93,4.41,4.41,0,0,1-.75-2.8V68.41h1.47v7.46a3.55,3.55,0,0,0,.42,2,1.57,1.57,0,0,0,1.38.61,1.84,1.84,0,0,0,1.17-.4,4.07,4.07,0,0,0,.86-.9V68.41h1.47V79.54Z" transform="translate(-10.29 -6.93)" fill="#231f20"></path><path d="M132.8,66a.93.93,0,0,1-.69.32,1,1,0,0,1-.73-.32,1,1,0,0,1-.31-.74,1,1,0,0,1,.31-.74,1,1,0,0,1,.73-.32.93.93,0,0,1,.69.32,1.05,1.05,0,0,1,.28.74A1.07,1.07,0,0,1,132.8,66Zm-1.46,13.55V68.41h1.47V79.54Z" transform="translate(-10.29 -6.93)" fill="#231f20"></path><path d="M137.85,79.54V64.93l1.47-.85V79.54Z" transform="translate(-10.29 -6.93)" fill="#231f20"></path><path d="M149.38,79.54v-1a4,4,0,0,1-1,.84,2.72,2.72,0,0,1-1.38.35,2.55,2.55,0,0,1-2.34-1.44,9,9,0,0,1-.8-4.26,9,9,0,0,1,.86-4.39,2.75,2.75,0,0,1,3.72-1.2,4.11,4.11,0,0,1,1,.78V64.93l1.47-.85V79.54Zm0-8.91a3.55,3.55,0,0,0-1-.82,2.33,2.33,0,0,0-1.21-.32,1.57,1.57,0,0,0-1.5,1.24,10.22,10.22,0,0,0-.44,3.31,8.21,8.21,0,0,0,.51,3.33,1.61,1.61,0,0,0,1.52,1.09,2.2,2.2,0,0,0,1.12-.31,4,4,0,0,0,1-.8Z" transform="translate(-10.29 -6.93)" fill="#231f20"></path><path d="M157.24,66a.9.9,0,0,1-.69.32,1,1,0,0,1-.73-.32,1,1,0,0,1-.31-.74,1,1,0,0,1,.31-.74,1,1,0,0,1,.73-.32.9.9,0,0,1,.69.32,1.05,1.05,0,0,1,.28.74A1.07,1.07,0,0,1,157.24,66Zm-1.46,13.55V68.41h1.47V79.54Z" transform="translate(-10.29 -6.93)" fill="#231f20"></path><path d="M167.46,79.54V72.07a3.6,3.6,0,0,0-.42-2,1.55,1.55,0,0,0-1.37-.6,1.83,1.83,0,0,0-1.17.39,4.27,4.27,0,0,0-.85.9v8.76h-1.46V68.41h1.46v.93a3.31,3.31,0,0,1,.95-.81,2.7,2.7,0,0,1,1.44-.36,2.59,2.59,0,0,1,2.15.94,4.45,4.45,0,0,1,.74,2.79v7.64Z" transform="translate(-10.29 -6.93)" fill="#231f20"></path><path d="M180.06,80.59a3.58,3.58,0,0,1-.76,1.49,3.94,3.94,0,0,1-1.38,1,9.12,9.12,0,0,1-2.12.56l-.45-1.15a8.43,8.43,0,0,0,1.72-.4,2.76,2.76,0,0,0,1.07-.67,2.23,2.23,0,0,0,.54-1,5.57,5.57,0,0,0,.15-1.37v-.47a4.31,4.31,0,0,1-1.05.84,2.76,2.76,0,0,1-1.39.35,2.53,2.53,0,0,1-2.33-1.44,8.89,8.89,0,0,1-.81-4.26,9,9,0,0,1,.86-4.39,2.75,2.75,0,0,1,3.72-1.2,4.15,4.15,0,0,1,1,.78v-.85h1.46V78.52A8.44,8.44,0,0,1,180.06,80.59Zm-1.23-10a3.55,3.55,0,0,0-1-.82,2.35,2.35,0,0,0-1.21-.32,1.55,1.55,0,0,0-1.5,1.24,9.92,9.92,0,0,0-.45,3.31,8.21,8.21,0,0,0,.51,3.33,1.62,1.62,0,0,0,1.52,1.09,2.23,2.23,0,0,0,1.13-.31,4.44,4.44,0,0,0,1-.8Z" transform="translate(-10.29 -6.93)" fill="#231f20"></path><path d="M196.5,79.24a2.68,2.68,0,0,1-1.71.53,3,3,0,0,1-1.45-.37,3.42,3.42,0,0,1-1.16-1.09,5.78,5.78,0,0,1-.76-1.79,9.73,9.73,0,0,1-.28-2.48,9.88,9.88,0,0,1,.3-2.58,6.08,6.08,0,0,1,.79-1.83,3.5,3.5,0,0,1,1.18-1.1,3,3,0,0,1,1.44-.36,2.6,2.6,0,0,1,1.75.57,5.67,5.67,0,0,1,1.14,1.38l-1.09.87a5.13,5.13,0,0,0-.8-1.07,1.49,1.49,0,0,0-1.08-.39,1.78,1.78,0,0,0-1.56,1.1A7.15,7.15,0,0,0,192.6,74a11,11,0,0,0,.14,1.82,5.1,5.1,0,0,0,.42,1.41,2.26,2.26,0,0,0,.7.91,1.67,1.67,0,0,0,2-.06,4.13,4.13,0,0,0,.86-1.07l1,.81A5.21,5.21,0,0,1,196.5,79.24Z" transform="translate(-10.29 -6.93)" fill="#231f20"></path><path d="M208.65,76.45a5.35,5.35,0,0,1-.78,1.82,3.57,3.57,0,0,1-1.21,1.12,3.23,3.23,0,0,1-1.55.38,3.2,3.2,0,0,1-2.74-1.46,7.5,7.5,0,0,1-1-4.33,7.42,7.42,0,0,1,1-4.33,3.23,3.23,0,0,1,2.77-1.48,3.2,3.2,0,0,1,2.74,1.47,7.5,7.5,0,0,1,1,4.3A10,10,0,0,1,208.65,76.45Zm-1.81-5.83a1.91,1.91,0,0,0-1.73-1.09,1.86,1.86,0,0,0-1.7,1.09A7,7,0,0,0,202.8,74a7.11,7.11,0,0,0,.62,3.36,1.89,1.89,0,0,0,3.43,0,7.11,7.11,0,0,0,.62-3.36A6.86,6.86,0,0,0,206.84,70.62Z" transform="translate(-10.29 -6.93)" fill="#231f20"></path><path d="M223.24,79.54V72.07a3.53,3.53,0,0,0-.42-2,1.46,1.46,0,0,0-1.24-.57,1.51,1.51,0,0,0-1,.37,4.27,4.27,0,0,0-.8.92v8.76h-1.46V72.07a3.44,3.44,0,0,0-.43-2,1.43,1.43,0,0,0-1.23-.57,1.55,1.55,0,0,0-1.05.37,4.24,4.24,0,0,0-.79.92v8.76h-1.46V68.41h1.46v.93a3.25,3.25,0,0,1,.93-.84,2.51,2.51,0,0,1,1.3-.33,2.25,2.25,0,0,1,1.39.39,3,3,0,0,1,.87,1,4.11,4.11,0,0,1,1.1-1,2.94,2.94,0,0,1,1.58-.39,2.41,2.41,0,0,1,2.05.93,4.58,4.58,0,0,1,.7,2.8v7.64Z" transform="translate(-10.29 -6.93)" fill="#231f20"></path><path d="M239.35,79.54V72.07a3.52,3.52,0,0,0-.43-2,1.43,1.43,0,0,0-1.23-.57,1.55,1.55,0,0,0-1.05.37,4.24,4.24,0,0,0-.79.92v8.76h-1.47V72.07a3.45,3.45,0,0,0-.42-2,1.43,1.43,0,0,0-1.23-.57,1.55,1.55,0,0,0-1,.37,4.24,4.24,0,0,0-.79.92v8.76h-1.46V68.41h1.46v.93a3.25,3.25,0,0,1,.93-.84,2.51,2.51,0,0,1,1.3-.33,2.25,2.25,0,0,1,1.39.39,3,3,0,0,1,.87,1,4.11,4.11,0,0,1,1.1-1,2.94,2.94,0,0,1,1.58-.39,2.38,2.38,0,0,1,2,.93,4.58,4.58,0,0,1,.71,2.8v7.64Z" transform="translate(-10.29 -6.93)" fill="#231f20"></path><path d="M250.77,79.54V78.6a3.34,3.34,0,0,1-1,.82,2.84,2.84,0,0,1-1.44.35,2.62,2.62,0,0,1-2.17-.93,4.48,4.48,0,0,1-.74-2.8V68.41h1.47v7.46a3.55,3.55,0,0,0,.42,2,1.57,1.57,0,0,0,1.38.61,1.89,1.89,0,0,0,1.18-.4,4.27,4.27,0,0,0,.85-.9V68.41h1.47V79.54Z" transform="translate(-10.29 -6.93)" fill="#231f20"></path><path d="M262.32,79.54V72.07a3.51,3.51,0,0,0-.42-2,1.54,1.54,0,0,0-1.36-.6,1.86,1.86,0,0,0-1.18.39,4.54,4.54,0,0,0-.85.9v8.76h-1.46V68.41h1.46v.93a3.31,3.31,0,0,1,.95-.81,2.72,2.72,0,0,1,1.44-.36,2.59,2.59,0,0,1,2.15.94,4.45,4.45,0,0,1,.74,2.79v7.64Z" transform="translate(-10.29 -6.93)" fill="#231f20"></path><path d="M270.12,66a.9.9,0,0,1-.69.32,1,1,0,0,1-.73-.32,1,1,0,0,1-.31-.74,1,1,0,0,1,.31-.74,1,1,0,0,1,.73-.32.9.9,0,0,1,.69.32,1.05,1.05,0,0,1,.28.74A1.07,1.07,0,0,1,270.12,66Zm-1.46,13.55V68.41h1.47V79.54Z" transform="translate(-10.29 -6.93)" fill="#231f20"></path><path d="M278.88,79.45a3.76,3.76,0,0,1-.76.25,4.94,4.94,0,0,1-.89.07,1.64,1.64,0,0,1-1.4-.58,2.88,2.88,0,0,1-.45-1.77V69.64h-1.14V68.41h1.14V64.93l1.43-.85v4.33h2.13v1.23h-2.13v7.63a1.37,1.37,0,0,0,.21.88.77.77,0,0,0,.63.26,3.62,3.62,0,0,0,.69-.06,3,3,0,0,0,.67-.23Z" transform="translate(-10.29 -6.93)" fill="#231f20"></path><path d="M285.69,83.46h-1.45l1.17-3.8-3.05-11.25h1.52l1.74,7.25.12.51c.05.21.1.43.16.66s.11.46.15.66.07.37.08.48c0-.11,0-.28.09-.48s.08-.42.13-.65l.15-.66c.05-.22.09-.4.12-.52l1.72-7.25h1.52Z" transform="translate(-10.29 -6.93)" fill="#231f20"></path><path d="M305.78,78.08a2.72,2.72,0,0,1-.68.92,3.21,3.21,0,0,1-1,.57,3.74,3.74,0,0,1-1.21.2,3.15,3.15,0,0,1-1.83-.52,4.91,4.91,0,0,1-1.31-1.3l1-.94a5.5,5.5,0,0,0,1,1.06,1.75,1.75,0,0,0,1.11.39,1.84,1.84,0,0,0,1.25-.4,1.32,1.32,0,0,0,.45-1,2.5,2.5,0,0,0-.09-.69,1.6,1.6,0,0,0-.32-.6,3.35,3.35,0,0,0-.63-.61,8.85,8.85,0,0,0-1-.7,11.12,11.12,0,0,1-1.13-.74,4.54,4.54,0,0,1-.8-.77,2.77,2.77,0,0,1-.47-.88,4,4,0,0,1-.14-1.09,2.84,2.84,0,0,1,.21-1.1,2.53,2.53,0,0,1,.59-.87,2.76,2.76,0,0,1,.92-.57,2.92,2.92,0,0,1,1.16-.22,3.31,3.31,0,0,1,1.74.44,3.69,3.69,0,0,1,1.19,1.17l-1.09.92a3.62,3.62,0,0,0-.82-.87,1.77,1.77,0,0,0-1.11-.34,1.44,1.44,0,0,0-1,.36,1.31,1.31,0,0,0-.37,1,2.15,2.15,0,0,0,.09.59,1.74,1.74,0,0,0,.31.53,3.81,3.81,0,0,0,.61.55c.27.19.59.41,1,.67a10.69,10.69,0,0,1,1.14.77,4.2,4.2,0,0,1,.82.81,3.4,3.4,0,0,1,.5.94,3.73,3.73,0,0,1,.17,1.16A2.83,2.83,0,0,1,305.78,78.08Z" transform="translate(-10.29 -6.93)" fill="#231f20"></path><path d="M312,66a.9.9,0,0,1-.69.32,1,1,0,0,1-.73-.32,1.05,1.05,0,0,1-.31-.74,1,1,0,0,1,.31-.74,1,1,0,0,1,.73-.32.9.9,0,0,1,.69.32,1.06,1.06,0,0,1,.29.74A1.08,1.08,0,0,1,312,66Zm-1.45,13.55V68.41H312V79.54Z" transform="translate(-10.29 -6.93)" fill="#231f20"></path><path d="M322.19,79.54V72.07a3.6,3.6,0,0,0-.42-2,1.56,1.56,0,0,0-1.37-.6,1.83,1.83,0,0,0-1.17.39,4.31,4.31,0,0,0-.86.9v8.76h-1.46V68.41h1.46v.93a3.31,3.31,0,0,1,.95-.81,2.75,2.75,0,0,1,1.44-.36,2.59,2.59,0,0,1,2.15.94,4.38,4.38,0,0,1,.74,2.79v7.64Z" transform="translate(-10.29 -6.93)" fill="#231f20"></path><path d="M333.33,79.24a2.68,2.68,0,0,1-1.71.53,3,3,0,0,1-1.45-.37A3.42,3.42,0,0,1,329,78.31a5.78,5.78,0,0,1-.76-1.79A10.23,10.23,0,0,1,328,74a10.36,10.36,0,0,1,.29-2.58,6.08,6.08,0,0,1,.8-1.83,3.33,3.33,0,0,1,1.18-1.1,3,3,0,0,1,1.44-.36,2.61,2.61,0,0,1,1.75.57,5.64,5.64,0,0,1,1.13,1.38l-1.08.87a5.51,5.51,0,0,0-.81-1.07,1.49,1.49,0,0,0-1.08-.39,1.77,1.77,0,0,0-1.55,1.1,7,7,0,0,0-.61,3.33,10,10,0,0,0,.14,1.82,5.11,5.11,0,0,0,.41,1.41,2.35,2.35,0,0,0,.7.91,1.58,1.58,0,0,0,1,.31,1.51,1.51,0,0,0,1-.37,4.13,4.13,0,0,0,.86-1.07l1,.81A5.05,5.05,0,0,1,333.33,79.24Z" transform="translate(-10.29 -6.93)" fill="#231f20"></path><path d="M345.25,74.21a2.28,2.28,0,0,1,0,.26h-5.61a7.15,7.15,0,0,0,.62,2.87,1.7,1.7,0,0,0,1.58,1.07,2.47,2.47,0,0,0,1.2-.28,4.39,4.39,0,0,0,1.09-1l.87.94a6,6,0,0,1-1.49,1.24,3.48,3.48,0,0,1-1.76.43,2.84,2.84,0,0,1-1.36-.35,3.24,3.24,0,0,1-1.13-1.06,5.77,5.77,0,0,1-.78-1.8,10.31,10.31,0,0,1-.29-2.58,7.92,7.92,0,0,1,1-4.29,3,3,0,0,1,2.63-1.52,2.83,2.83,0,0,1,2.58,1.53,8.3,8.3,0,0,1,.89,4.2Zm-1.57-2.5a4.84,4.84,0,0,0-.4-1.15,2.06,2.06,0,0,0-.64-.75,1.48,1.48,0,0,0-.9-.28,1.66,1.66,0,0,0-1.44.87,5.87,5.87,0,0,0-.67,2.78h4.22A10.26,10.26,0,0,0,343.68,71.71Z" transform="translate(-10.29 -6.93)" fill="#231f20"></path><path d="M357,79.54V67.3h-2v-1a3.65,3.65,0,0,0,1.58-.42,1.75,1.75,0,0,0,.76-1.23h1.16V79.54Z" transform="translate(-10.29 -6.93)" fill="#231f20"></path><path d="M370.07,73.16a10.42,10.42,0,0,1-1,2.86,7.94,7.94,0,0,1-1.78,2.25,7.63,7.63,0,0,1-2.65,1.5l-.47-1.23a6.68,6.68,0,0,0,3.19-2.28,8.5,8.5,0,0,0,1.56-3.89,3.86,3.86,0,0,1-1.08.93,3.2,3.2,0,0,1-1.59.37,3.31,3.31,0,0,1-1.47-.33,3.2,3.2,0,0,1-1.11-.93A4.24,4.24,0,0,1,363,71a6.63,6.63,0,0,1-.24-1.85,6,6,0,0,1,.28-1.9,4.3,4.3,0,0,1,.78-1.47,3.6,3.6,0,0,1,1.23-1,3.8,3.8,0,0,1,1.61-.33,3.31,3.31,0,0,1,2.74,1.33,6.57,6.57,0,0,1,1,4A16.09,16.09,0,0,1,370.07,73.16Zm-1.79-6.43a2.12,2.12,0,0,0-3.48,0,4.07,4.07,0,0,0-.62,2.34,4.11,4.11,0,0,0,.6,2.35,2,2,0,0,0,1.74.89,2.27,2.27,0,0,0,1.06-.25,2,2,0,0,0,.75-.68,3.21,3.21,0,0,0,.45-1,5.06,5.06,0,0,0,.15-1.26A3.94,3.94,0,0,0,368.28,66.73Z" transform="translate(-10.29 -6.93)" fill="#231f20"></path><path d="M381.37,73.16a10.42,10.42,0,0,1-1,2.86,8.12,8.12,0,0,1-1.78,2.25,7.63,7.63,0,0,1-2.65,1.5l-.47-1.23a6.6,6.6,0,0,0,3.18-2.28,8.4,8.4,0,0,0,1.57-3.89,3.77,3.77,0,0,1-1.09.93,3.16,3.16,0,0,1-1.58.37,3.36,3.36,0,0,1-1.48-.33,3.26,3.26,0,0,1-1.1-.93,4.24,4.24,0,0,1-.7-1.43,6.63,6.63,0,0,1-.24-1.85,6.32,6.32,0,0,1,.27-1.9,4.5,4.5,0,0,1,.79-1.47,3.6,3.6,0,0,1,1.23-1,3.8,3.8,0,0,1,1.61-.33,3.31,3.31,0,0,1,2.74,1.33,6.57,6.57,0,0,1,1,4A16.09,16.09,0,0,1,381.37,73.16Zm-1.79-6.43a2.12,2.12,0,0,0-3.48,0,4.07,4.07,0,0,0-.62,2.34,4.11,4.11,0,0,0,.6,2.35,2,2,0,0,0,1.74.89,2.27,2.27,0,0,0,1.06-.25,2.12,2.12,0,0,0,.75-.68,3.21,3.21,0,0,0,.45-1,5.06,5.06,0,0,0,.15-1.26A4,4,0,0,0,379.58,66.73Z" transform="translate(-10.29 -6.93)" fill="#231f20"></path><path d="M391.7,75.64v3.9h-1.36v-3.9h-5.47V74.51l5.49-9.81h1.34v9.66h1.38v1.28Zm-1.94-7.28-.71,1.3-1.44,2.56c-.23.4-.45.79-.67,1.16s-.41.7-.56,1h4V68.87c0-.22,0-.5,0-.83s0-.6,0-.8C390.21,67.54,390,67.91,389.76,68.36Z" transform="translate(-10.29 -6.93)" fill="#231f20"></path></svg> 